<svg id="圖層_1" data-name="圖層 1" xmlns="http://www.w3.org/2000/svg" viewBox="0 0 130.37 146.32"><defs><style>.cls-1{fill:#e4007f;}.cls-2{fill:none;stroke:#fff;stroke-miterlimit:10;stroke-width:7.42px;}</style></defs><path class="cls-1" d="M65.6,82.18c.11-1.14-5.57,7-10.15,8.39-2.22.7-8.64,2.54-7.88,11.47l-2.33,1.62.86,1.27c2.24-1.69,9.82-5.91,15-12.86,0,0,.41,3-12.28,12.24.19-.12,2.9.77,3.42.76,4.37,0,7.69-3.73,9.6-7.31C64.42,93,65.1,87.43,65.6,82.18Z" transform="translate(-7.78 -13.68)"/><path class="cls-1" d="M98.44,88.09a29.26,29.26,0,0,0,3.73-3.34,2.94,2.94,0,0,0,.8-2.85c-.21-1.41-3.59-1.07-5.65-2.94-2.87-2.61-2.11-4.7-.71-7.4,3.91-7.57,4.62-10.29-3.73-10.6-6.24-.23-14.57-.55-19.72-5.05,4.47-4.35,8.37-14.12,4.59-19.37,1.83,8.83-7.67,13.82-8.82,14.63-4.8-5.36-2-7.46-7.16-11.05C57,36.8,52.49,34,48.9,29.05c-2.66-3.64-7.67-4.68-11.52-7.18,15.76-12.08,45.79-10.21,67.43,1.79a75.07,75.07,0,0,1,30.62,82.45c-7.54,27.35-33.4,51.36-56.78,52.72-4.12-10.74-.21-21.7,7.88-29.38,4.81-4.56,10.68-7.53,15.9-11.48,4.52-3.42,5.32-7.32,2.19-12.22-2.51-3.94-6-8-2.64-13.68C102.49,91.18,99.5,90,98.44,88.09Z" transform="translate(-7.78 -13.68)"/><path class="cls-1" d="M37.82,29a25.52,25.52,0,0,1,2.41,6.09,24.79,24.79,0,0,1,.64,6.6,37.52,37.52,0,0,1-3,12.95C34.37,62.89,29,69.93,25.15,77.41a51.56,51.56,0,0,0-2.56,5.7c-.29,1-.68,1.9-.92,2.88A24.82,24.82,0,0,0,21,88.93a28.1,28.1,0,0,0,.53,11.87,27.37,27.37,0,0,0,5.37,10.43c.69.7,1.31,1.47,2,2.11a23.84,23.84,0,0,0,2.28,1.87l1.2.86c.41.27.85.49,1.28.74s.83.49,1.3.74l1.46.75A90.44,90.44,0,0,1,48,125.22a44.24,44.24,0,0,1,5.25,4.46,51.17,51.17,0,0,1,4.47,5.15c2.71,3.55,5.07,7.22,7.57,10.64s5.09,6.69,8.33,8.7A16.62,16.62,0,0,0,84.83,156a23.54,23.54,0,0,0,3-.62c1-.31,2-.58,3-1a46.94,46.94,0,0,0,5.79-2.52,64.1,64.1,0,0,0,19.92-16,58.2,58.2,0,0,1-18.64,18.3,49.07,49.07,0,0,1-5.94,3.08c-1,.47-2.07.84-3.13,1.24a26.9,26.9,0,0,1-3.33.93,22,22,0,0,1-7,.43,18,18,0,0,1-6.94-2.11,24.79,24.79,0,0,1-5.61-4.36,58,58,0,0,1-4.39-5.14c-2.71-3.5-5.16-7.07-7.8-10.32a57.61,57.61,0,0,0-4.12-4.62,40.25,40.25,0,0,0-4.69-3.9A86.62,86.62,0,0,0,34,123l-1.42-.75c-.49-.27-1-.59-1.52-.88s-1-.58-1.52-.91l-1.44-1a28.3,28.3,0,0,1-2.72-2.28c-.88-.79-1.64-1.72-2.45-2.58A31.32,31.32,0,0,1,16.68,102a32.85,32.85,0,0,1-.23-13.92,34.29,34.29,0,0,1,2-6.66,56.64,56.64,0,0,1,3.06-6c2.24-3.86,4.74-7.46,7.21-11a90.6,90.6,0,0,0,6.75-10.86,36.8,36.8,0,0,0,3.93-12A24.54,24.54,0,0,0,37.82,29Z" transform="translate(-7.78 -13.68)"/><path class="cls-1" d="M31.56,25a14.47,14.47,0,0,1,2.69,8.58,19.52,19.52,0,0,1-2.56,8.95c-3,5.45-7.22,9.72-10.88,14a45.38,45.38,0,0,0-8.39,14,37.3,37.3,0,0,0-1.95,16.61,26.08,26.08,0,0,1-2-17.74,36.52,36.52,0,0,1,8.58-16.12C21,48.82,25.3,45,28.5,40.58A20.28,20.28,0,0,0,32,33.34,16.72,16.72,0,0,0,31.56,25Z" transform="translate(-7.78 -13.68)"/><path class="cls-2" d="M22.65,70.56c1.62,5.52,5.15,11.61,11.2,12.94.73.16,4.75-.29,5-.07C23.88,67,25.33,62.87,25.33,62.87,30.56,74,39.86,82.09,42.49,85.1l1.56-1.52-2.77-2.92c3.65-12.18-4.74-16.6-7.62-18.21C27.72,59.13,22.18,46.23,22,47.84,21.18,55.28,20.5,63.27,22.65,70.56Z" transform="translate(-7.78 -13.68)"/><path class="cls-1" d="M22.65,70.56c1.62,5.52,5.15,11.61,11.2,12.94.73.16,4.75-.29,5-.07C23.88,67,25.33,62.87,25.33,62.87,30.56,74,39.86,82.09,42.49,85.1l1.56-1.52-2.77-2.92c3.65-12.18-4.74-16.6-7.62-18.21C27.72,59.13,22.18,46.23,22,47.84,21.18,55.28,20.5,63.27,22.65,70.56Z" transform="translate(-7.78 -13.68)"/><path class="cls-1" d="M42.94,37.32a22.2,22.2,0,0,1,7.2,10,33.27,33.27,0,0,1,1.8,12.47,59.92,59.92,0,0,1-1.89,12.31c-1,4-2.12,7.78-3,11.58-.45,1.9-.84,3.79-1.11,5.67a38.3,38.3,0,0,0-.49,5.61,26.17,26.17,0,0,0,2,10.75,27.33,27.33,0,0,0,6.58,9.1A63.51,63.51,0,0,0,63.54,122a41.15,41.15,0,0,1-11.15-5.11,30.15,30.15,0,0,1-4.86-4.07,25.83,25.83,0,0,1-3.85-5.21A27.73,27.73,0,0,1,40.4,95a47.91,47.91,0,0,1,1.47-12.56c.94-4,2.17-7.88,3.3-11.69a73.18,73.18,0,0,0,2.6-11.32A35,35,0,0,0,47.63,48,25.9,25.9,0,0,0,42.94,37.32Z" transform="translate(-7.78 -13.68)"/><path class="cls-1" d="M28,130.31a35.92,35.92,0,0,0,8.41,8.62,31.62,31.62,0,0,0,10.48,4.92A36.71,36.71,0,0,0,58.32,145a42.92,42.92,0,0,0,5.75-.67,34.78,34.78,0,0,0,5.58-1.4c7.38-2.44,14.58-6.59,22.65-9.23a35,35,0,0,1,12.68-2A21.59,21.59,0,0,1,116.8,136,24.7,24.7,0,0,0,105,134.32a37.94,37.94,0,0,0-11.25,3.26c-7.29,3.16-14.24,7.63-22.47,10.38a38.84,38.84,0,0,1-6.37,1.52c-1.07.19-2.15.28-3.23.38a32.19,32.19,0,0,1-3.26.15,36.07,36.07,0,0,1-12.84-2.17,30.88,30.88,0,0,1-10.9-6.93A28.33,28.33,0,0,1,28,130.31Z" transform="translate(-7.78 -13.68)"/></svg>