<?xml version="1.0" encoding="utf-8"?>
<!-- Generator: Adobe Illustrator 25.0.0, SVG Export Plug-In . SVG Version: 6.00 Build 0)  -->
<svg version="1.1" id="圖層_1" xmlns="http://www.w3.org/2000/svg" xmlns:xlink="http://www.w3.org/1999/xlink" x="0px" y="0px"
	 viewBox="0 0 44.5 13.5" style="enable-background:new 0 0 44.5 13.5;" xml:space="preserve">
<style type="text/css">
	.st0{fill:#4C4948;}
	.st1{stroke:#FFFFFF;stroke-width:2.000000e-02;stroke-miterlimit:10;}
</style>
<g>
	<path d="M8.4-8.8c0,1.5-0.4,2.7-1.3,3.6s-1.9,1.3-3,1.3S2-4.3,1.2-5.1S0-7,0-8.4c0-1.5,0.4-2.7,1.3-3.6c0.9-0.9,1.8-1.4,3-1.4
		c1.1,0,2.1,0.4,2.9,1.2S8.4-10.2,8.4-8.8z M7.2-8.7c0-1.2-0.3-2.1-0.9-2.8c-0.7-0.6-1.4-0.9-2.2-0.9s-1.4,0.3-2,1
		c-0.7,0.7-1,1.6-1,2.8s0.4,2.1,1,2.7s1.3,1,2.2,1c0.8,0,1.4-0.4,2-1.1S7.2-7.5,7.2-8.7z"/>
</g>
<g>
	<path d="M16.7-5.3l-0.1,1C16-4.1,15.4-4,14.7-4c-1.6,0-2.8-0.4-3.6-1.3c-0.8-0.9-1.2-1.9-1.2-3.2s0.4-2.4,1.3-3.4s2.1-1.4,3.6-1.4
		c0.4,0,0.9,0.1,1.3,0.2L15.9-12c-0.5-0.2-1-0.2-1.4-0.2c-1.1,0-2,0.3-2.6,1c-0.5,0.6-0.8,1.5-0.8,2.5s0.3,1.9,1,2.6S13.7-5,14.9-5
		C15.4-5,16-5.1,16.7-5.3z"/>
</g>
<g>
	<path d="M24-5.2v1.1h-5.6c0.1-1.4,0.1-3,0.1-4.8c0-1.6,0-3.1-0.1-4.3h5.2l-0.1,1c-1.3-0.1-2.6-0.1-4-0.1c0,0.7,0,1.7,0,2.9
		c1.2,0,2.3,0,3.3-0.1v1c-1,0-2.1-0.1-3.3-0.1c0,1.2,0,2.3,0.1,3.3C21.1-5.1,22.6-5.2,24-5.2z"/>
</g>
<path d="M23.3-15.9c0,0-0.3,0.4-0.9,0.9c-0.6,0.6-1,0.9-1,1h-0.8c0-0.1,0.2-0.4,0.6-1s0.6-0.9,0.6-0.9H23.3z"/>
<g>
	<path d="M33.1-4.2h-1.5c0-0.3-0.3-1.3-0.9-2.9h-4c-0.6,1.6-0.9,2.6-0.9,2.9h-1.4c0-0.2,0.6-1.6,1.8-4.4c1.3-2.8,1.9-4.3,1.9-4.6
		h1.6c0,0.3,0.6,1.8,1.7,4.5S33.1-4.4,33.1-4.2z M30.5-8c-1.1-2.7-1.6-4.2-1.6-4.3h-0.1c0,0.1-0.6,1.6-1.7,4.3H30.5z"/>
</g>
<g>
	<path d="M41.5-4.2h-1c0-0.1-0.8-1.2-2.3-3.3c-1.6-2.2-2.5-3.7-2.7-4.2h-0.1c0.1,1.1,0.1,2.1,0.1,2.9c0,1.6,0,3.1,0.1,4.7h-1.1
		c0.1-1.5,0.1-3.1,0.1-4.8c0-1.6,0-3.1-0.1-4.3h1.3c0,0.1,0.7,1.2,2.1,3.2c1.5,2.1,2.3,3.4,2.5,4.1h0.1C40.4-7,40.4-8,40.4-8.8
		c0-1.7,0-3.2-0.1-4.4h1.2c-0.1,1.2-0.1,2.7-0.1,4.3C41.3-7.3,41.4-5.7,41.5-4.2z"/>
</g>
<path class="st0" d="M8.9,33.7c0,0.9-0.1,1.6-0.4,2.3c-0.3,0.7-0.7,1.2-1.3,1.6c-0.6,0.4-1.3,0.6-2.1,0.6c-0.9,0-1.6-0.2-2.2-0.6
	c-0.6-0.4-1-0.9-1.3-1.6s-0.4-1.4-0.4-2.3c0-0.9,0.1-1.6,0.4-2.3s0.7-1.2,1.3-1.5s1.3-0.6,2.2-0.6c0.8,0,1.5,0.2,2.1,0.5
	c0.6,0.4,1,0.9,1.3,1.5C8.7,32,8.9,32.8,8.9,33.7z M1.8,33.7c0,0.8,0.1,1.4,0.3,2s0.6,1,1,1.3c0.5,0.3,1.1,0.5,1.8,0.5
	s1.3-0.2,1.8-0.5s0.8-0.8,1-1.3c0.2-0.6,0.3-1.2,0.3-2c0-1.2-0.3-2.1-0.8-2.8c-0.5-0.7-1.3-1-2.3-1c-0.7,0-1.3,0.2-1.8,0.5
	S2.3,31.2,2,31.7C2,32.3,1.8,32.9,1.8,33.7z"/>
<path class="st0" d="M14.4,29.9c-0.7,0-1.3,0.2-1.8,0.5s-0.9,0.8-1.2,1.3c-0.3,0.6-0.4,1.2-0.4,2s0.1,1.4,0.4,2
	c0.2,0.6,0.6,1,1.1,1.3s1.1,0.5,1.8,0.5c0.4,0,0.8,0,1.2-0.1s0.7-0.1,1-0.2v0.6c-0.3,0.1-0.6,0.2-1,0.3s-0.8,0.1-1.2,0.1
	c-0.9,0-1.6-0.2-2.2-0.6c-0.6-0.4-1-0.9-1.3-1.5c-0.3-0.7-0.4-1.4-0.4-2.3c0-0.8,0.2-1.6,0.5-2.3s0.8-1.2,1.4-1.6
	c0.6-0.4,1.4-0.6,2.2-0.6s1.6,0.2,2.3,0.5l-0.3,0.6C15.8,30.1,15.1,29.9,14.4,29.9z"/>
<polygon class="st0" points="23.5,38 18.8,38 18.8,29.4 23.5,29.4 23.5,30 19.5,30 19.5,33.2 23.3,33.2 23.3,33.8 19.5,33.8 
	19.5,37.3 23.5,37.3 "/>
<path class="st0" d="M31.7,38l-1.2-3H27l-1.2,3h-0.7l3.4-8.6h0.7l3.3,8.6H31.7z M30.3,34.4l-1.2-3.1c0-0.1-0.1-0.3-0.2-0.5
	s-0.2-0.5-0.2-0.6c-0.1,0.2-0.1,0.4-0.2,0.6s-0.1,0.4-0.2,0.5l-1.2,3.1H30.3z"/>
<path class="st0" d="M40.5,38h-0.8l-5-7.5l0,0c0,0.3,0,0.6,0,1c0,0.3,0,0.7,0,1.1V38H34v-8.5h0.8l5,7.4l0,0c0-0.2,0-0.6,0-1
	s0-0.7,0-1.1v-5.4h0.7V38z"/>
<text transform="matrix(1 0 0 1 2.8135 27.3605)" style="font-family:'NotoSans-Light'; font-size:10.7585px;">OCÉAN</text>
<path class="st1" d="M8.7,11.1C9,10.3,9.2,9.4,9.2,8.4c0-1.1-0.2-2-0.5-2.7C8.3,4.9,7.8,4.3,7.2,3.9C6.5,3.5,5.7,3.2,4.7,3.2
	c-1,0-1.8,0.2-2.5,0.6c-0.7,0.4-1.2,1-1.5,1.8C0.4,6.4,0.2,7.3,0.2,8.4c0,1,0.2,1.9,0.5,2.7c0.3,0.8,0.8,1.4,1.5,1.8
	c0.7,0.4,1.5,0.6,2.5,0.6c1,0,1.8-0.2,2.5-0.6C7.8,12.4,8.3,11.8,8.7,11.1z M4.7,12.9c-0.8,0-1.6-0.2-2.1-0.6s-1-0.9-1.2-1.6
	C1.1,10.1,1,9.3,1,8.4C1,7.5,1.1,6.7,1.4,6c0.3-0.7,0.7-1.2,1.3-1.6c0.6-0.4,1.3-0.6,2.1-0.6c1.2,0,2.2,0.4,2.8,1.2
	C8.1,5.9,8.4,7,8.4,8.4c0,0.9-0.1,1.7-0.4,2.4c-0.3,0.7-0.7,1.2-1.2,1.6C6.3,12.7,5.6,12.9,4.7,12.9z"/>
<path class="st1" d="M18.2,13.2l0.1-0.5v-0.1c-0.4,0.1-0.7,0.2-1.2,0.3c-0.4,0.1-0.9,0.1-1.4,0.1c-0.9,0-1.6-0.2-2.2-0.6
	c-0.6-0.4-1-0.9-1.3-1.6c-0.3-0.7-0.4-1.5-0.4-2.4c0-0.9,0.2-1.7,0.5-2.4c0.3-0.7,0.8-1.2,1.4-1.6c0.6-0.4,1.3-0.6,2.2-0.6
	c0.8,0,1.6,0.2,2.3,0.6l0.4-0.6c-0.8-0.4-1.7-0.6-2.6-0.6c-1,0-1.9,0.2-2.6,0.7c-0.7,0.4-1.3,1-1.6,1.8c-0.4,0.8-0.6,1.7-0.6,2.6
	c0,1,0.2,1.9,0.5,2.7c0.3,0.8,0.8,1.4,1.5,1.8c0.7,0.4,1.5,0.6,2.5,0.6c0.5,0,1,0,1.4-0.1C17.5,13.3,17.9,13.2,18.2,13.2z"/>
<polygon class="st1" points="20.4,3.3 20.4,13.4 20.4,13.4 25.9,13.4 25.9,12.8 25.9,12.8 21.1,12.7 21.2,8.4 25.5,8.5 25.6,8.5 
	25.6,7.8 21.1,7.8 21.2,4 25.8,4.1 25.8,4.1 25.9,3.4 25.9,3.4 "/>
<path d="M25.3,0v0.1c-0.1,0.2-0.3,0.4-0.6,0.7c-0.2,0.3-0.5,0.5-0.7,0.8c-0.3,0.3-0.5,0.5-0.7,0.7h-0.6V2.2C22.8,2,23,1.8,23.3,1.5
	c0.2-0.3,0.4-0.5,0.6-0.8c0.2-0.3,0.4-0.5,0.5-0.7H25.3z"/>
<path class="st1" d="M31.5,3.4l-0.7,0l-2.9,7.3l-1.1,2.7l0.8,0L29,9.9l4.2,0l1.3,3.4h0.8L31.5,3.4z M32.9,9.3l-2.7-0.1h-0.9l0,0
	l-0.1,0l1.4-3.6c0.1-0.2,0.1-0.4,0.2-0.6C30.9,4.7,31,4.4,31,4.2l0.1,0c0.1,0.2,0.2,0.5,0.3,0.8c0.1,0.3,0.2,0.5,0.2,0.6l1,2.8
	L32.9,9.3L32.9,9.3L32.9,9.3z"/>
<path class="st1" d="M43.5,9.7c0,0.4,0,0.8,0,1.3c0,0.5,0,0.8,0,1.2l-0.1,0l-5.8-8.8l-0.8-0.1l-0.1,10v0.1l0.7,0.1V7.1
	c0-0.5,0-0.9,0-1.3c0-0.4,0-0.8,0-1.2l0.1,0l5.8,8.8h0.8l0.1-10l-0.7-0.1V9.7z"/>
</svg>
