<?xml version="1.0" encoding="utf-8"?>
<!-- Generator: Adobe Illustrator 25.0.0, SVG Export Plug-In . SVG Version: 6.00 Build 0)  -->
<svg version="1.1" id="圖層_1" xmlns="http://www.w3.org/2000/svg" xmlns:xlink="http://www.w3.org/1999/xlink" x="0px" y="0px"
	 viewBox="0 0 41.5 12" style="enable-background:new 0 0 41.5 12;" xml:space="preserve">
<g>
	<path d="M8.4,7.1c0,1.5-0.4,2.7-1.3,3.6c-0.9,0.9-1.9,1.3-3,1.3S2,11.6,1.2,10.8S0,8.9,0,7.5C0,6,0.4,4.8,1.3,3.9s1.8-1.4,3-1.4
		c1.1,0,2.1,0.4,2.9,1.2S8.4,5.7,8.4,7.1z M7.2,7.2c0-1.2-0.3-2.1-0.9-2.8C5.6,3.8,4.9,3.5,4.1,3.5s-1.4,0.3-2,1
		c-0.7,0.7-1,1.6-1,2.8s0.4,2.1,1,2.7s1.3,1,2.2,1c0.8,0,1.4-0.4,2-1.1S7.2,8.4,7.2,7.2z"/>
</g>
<g>
	<path d="M16.7,10.6l-0.1,1c-0.6,0.2-1.2,0.3-1.9,0.3c-1.6,0-2.8-0.4-3.6-1.3c-0.8-0.9-1.2-1.9-1.2-3.2S10.3,5,11.2,4
		c0.9-1,2.1-1.4,3.6-1.4c0.4,0,0.9,0.1,1.3,0.2l-0.2,1.1c-0.5-0.2-1-0.2-1.4-0.2c-1.1,0-2,0.3-2.6,1c-0.5,0.6-0.8,1.5-0.8,2.5
		s0.3,1.9,1,2.6s1.6,1.1,2.8,1.1C15.4,10.9,16,10.8,16.7,10.6z"/>
</g>
<g>
	<path d="M24,10.7v1.1h-5.6c0.1-1.4,0.1-3,0.1-4.8c0-1.6,0-3.1-0.1-4.3h5.2l-0.1,1c-1.3-0.1-2.6-0.1-4-0.1c0,0.7,0,1.7,0,2.9
		c1.2,0,2.3,0,3.3-0.1v1c-1,0-2.1-0.1-3.3-0.1c0,1.2,0,2.3,0.1,3.3C21.1,10.8,22.6,10.7,24,10.7z"/>
</g>
<path d="M23.3,0c0,0-0.3,0.4-0.9,0.9c-0.6,0.6-1,0.9-1,1h-0.8c0-0.1,0.2-0.4,0.6-1S21.8,0,21.8,0C21.8,0,23.3,0,23.3,0z"/>
<g>
	<path d="M33.1,11.7h-1.5c0-0.3-0.3-1.3-0.9-2.9h-4c-0.6,1.6-0.9,2.6-0.9,2.9h-1.4c0-0.2,0.6-1.6,1.8-4.4c1.3-2.8,1.9-4.3,1.9-4.6
		h1.6c0,0.3,0.6,1.8,1.7,4.5C32.5,9.9,33.1,11.5,33.1,11.7z M30.5,7.9c-1.1-2.7-1.6-4.2-1.6-4.3h-0.1c0,0.1-0.6,1.6-1.7,4.3H30.5z"
		/>
</g>
<g>
	<path d="M41.5,11.7h-1c0-0.1-0.8-1.2-2.3-3.3c-1.6-2.2-2.5-3.7-2.7-4.2h-0.1c0.1,1.1,0.1,2.1,0.1,2.9c0,1.6,0,3.1,0.1,4.7h-1.1
		c0.1-1.5,0.1-3.1,0.1-4.8c0-1.6,0-3.1-0.1-4.3h1.3c0,0.1,0.7,1.2,2.1,3.2c1.5,2.1,2.3,3.4,2.5,4.1h0.1c-0.1-1.1-0.1-2.1-0.1-2.9
		c0-1.7,0-3.2-0.1-4.4h1.2c-0.1,1.2-0.1,2.7-0.1,4.3C41.3,8.6,41.4,10.2,41.5,11.7z"/>
</g>
</svg>
