<?xml version="1.0" encoding="utf-8"?>
<!-- Generator: Adobe Illustrator 25.0.0, SVG Export Plug-In . SVG Version: 6.00 Build 0)  -->
<svg version="1.1" id="圖層_1" xmlns="http://www.w3.org/2000/svg" xmlns:xlink="http://www.w3.org/1999/xlink" x="0px" y="0px"
	 viewBox="0 0 199.4 189.8" style="enable-background:new 0 0 199.4 189.8;" xml:space="preserve">
<style type="text/css">
	.st0{fill:#E4007F;}
	.st1{fill:none;}
</style>
<path class="st0" d="M70.7,111.5c0.7-0.3,1.3-0.5,2.2-0.2c2.8,0.9,5.3,1.2,7.8-0.7c3.9-2.9,5.8-7.5,6.9-12.1c0.7-3,1.1-6.1,1.3-9.1
	c-0.4,0.2-0.7,0.5-1,0.8c-1.7,1.8-3.5,3.7-5.5,5.2c-1,0.8-2.1,1.6-3.2,2.2c-1.2,0.7-2.5,1-3.7,1.7c-0.8,0.4-1.6,1-2.2,1.6
	c-0.9,0.9-1.5,2.1-1.9,3.3c-0.2,0.7-0.4,1.5-0.5,2.3c-0.1,0.7,0.1,1.5-0.2,2.2c-0.4,1-1.5,1.4-2.3,2.2c0.2,0.2,0.7,1.1,0.9,1.2
	C69.7,112.3,70.4,111.6,70.7,111.5z"/>
<path class="st0" d="M91.9,59.5c-4.8-5.4-2-7.5-7.2-11c-4.8-3.4-9.3-6.3-12.9-11.2c-2.7-3.6-7.7-4.7-11.5-7.2
	C76.2,18.1,106.2,20,127.8,32c26.9,18,39.3,51.2,30.6,82.4c-7.5,27.4-33.4,51.4-56.8,52.7c-4.1-10.7-0.2-21.7,7.9-29.4
	c4.8-4.6,10.7-7.5,15.9-11.5c4.5-3.4,5.3-7.3,2.2-12.2c-2.5-3.9-6-8-2.6-13.7c0.5-0.9-2.5-2.2-3.5-4c1.3-1,2.6-2.1,3.7-3.3
	c0.8-0.7,1.1-1.8,0.8-2.8c-0.2-1.4-3.6-1.1-5.7-2.9c-2.9-2.6-2.1-4.7-0.7-7.4c3.9-7.6,4.6-10.3-3.7-10.6c-6.2-0.2-14.6-0.6-19.7-5"
	/>
<path class="st1" d="M54.5,74.1L54.5,74.1l-0.4,0.7c2,3.2,4.4,6.2,6.9,9C61.2,77.8,57,75.4,54.5,74.1z"/>
<path class="st0" d="M58,67.5l0.2,0.1l0,0c0.8-1.5,1.5-3.1,2.2-4.7c1.8-4.1,2.8-8.5,3-12.9c0.1-2.2-0.1-4.4-0.6-6.6
	c-0.5-2.1-1.4-4.2-2.4-6.1c1.6,4,2.2,8.3,1.6,12.6c-0.6,4.2-1.9,8.3-3.9,12c-0.7,1.3-1.4,2.6-2.2,3.9C56.5,66.4,57.2,67,58,67.5z"/>
<path class="st0" d="M119.1,160.2c-1.9,1-3.8,1.8-5.8,2.5c-1,0.4-2,0.6-3,1c-1,0.3-2,0.5-3,0.6c-4,0.6-8.1,0.1-11.3-1.9
	s-5.8-5.3-8.3-8.7s-4.9-7.1-7.6-10.6c-1.4-1.8-2.8-3.6-4.4-5.2c-1.6-1.6-3.4-3.1-5.2-4.5c-3.7-2.6-7.5-4.9-11.5-6.9l-1.5-0.8
	c-0.5-0.2-0.9-0.5-1.3-0.7s-0.9-0.5-1.3-0.7l-1.2-0.9c-0.8-0.6-1.6-1.2-2.3-1.9c-0.7-0.6-1.4-1.4-2-2.1c-2.5-3-4.4-6.6-5.4-10.4
	c-1-3.9-1.2-7.9-0.5-11.9c0.2-1,0.4-2,0.6-2.9c0.2-1,0.6-1.9,0.9-2.9c0.3-0.8,0.6-1.6,1-2.4c-1-1.3-1.9-2.8-2.6-4.3
	c-0.9,1.6-1.7,3.3-2.5,5c-0.9,2.1-1.6,4.4-2,6.7c-0.9,4.6-0.8,9.3,0.2,13.9c1.1,4.6,3.3,8.9,6.3,12.6c0.8,0.9,1.6,1.8,2.5,2.6
	c0.9,0.8,1.8,1.6,2.7,2.3l1.4,1c0.5,0.3,1,0.6,1.5,0.9s1,0.6,1.5,0.9l1.4,0.8c3.8,1.9,7.4,4,10.9,6.4c1.7,1.2,3.2,2.5,4.7,3.9
	c1.5,1.5,2.8,3,4.1,4.6c2.7,3.2,5.1,6.8,7.8,10.3c1.4,1.8,2.8,3.5,4.4,5.1c1.6,1.7,3.5,3.2,5.6,4.4c2.2,1.2,4.5,1.9,7,2.1
	c2.3,0.2,4.7,0.1,7-0.4c1.1-0.2,2.2-0.6,3.3-0.9c1-0.4,2.1-0.8,3.1-1.2c2-0.9,4-1.9,5.9-3.1c7.5-4.6,13.9-10.9,18.6-18.3
	C133.5,150.8,126.8,156.3,119.1,160.2z"/>
<path class="st0" d="M40.3,61.3c-0.1,0.1-0.1,0.2-0.2,0.2c-4.2,4.6-7.1,10.1-8.6,16.1c-1.4,6-0.7,12.2,2,17.7
	c-0.6-5.6,0-11.3,1.9-16.6c1.2-3.2,2.7-6.3,4.7-9.1C40,66.9,40.1,64.1,40.3,61.3z"/>
<path class="st0" d="M50.1,57.6c1.7-2.1,3.3-4.4,4.6-6.7c1.6-2.8,2.4-5.8,2.5-9c0-3.1-0.9-6.1-2.7-8.6c0.9,2.7,1,5.6,0.4,8.4
	c-0.7,2.6-1.8,5.1-3.5,7.2c-1.2,1.7-2.6,3.3-4,4.8c0.8,1,1.5,2,2.1,3.2C49.8,57.1,49.9,57.3,50.1,57.6z"/>
<path class="st0" d="M65.4,91c0.4-1.1,0.2-2.5-0.5-3.4c-0.4-0.5-0.9-0.9-1.1-1.4c-0.3-1,0.3-2.2,0.4-3.3c0.1-1.5-0.3-3-0.8-4.4
	c-1.4-3.8-4.3-6.9-7.2-9.5c-5.2-4.6-9.5-10.3-12.6-16.5c-0.3,5.1-1,10.2-0.8,15.3c0.2,5.1,1.4,10.3,4.4,14.4
	c1.9,2.6,4.6,4.7,7.6,5.8c2.7,1,7-0.2,9.2,1.8"/>
<path class="st0" d="M66,45.6c3.3,2.6,5.8,6.1,7.2,10c1.4,4,2,8.2,1.8,12.5c-0.2,4.2-0.8,8.3-1.9,12.3c-1,3.9-2.1,7.8-3,11.6
	c-0.5,1.9-0.8,3.8-1.1,5.7c-0.3,1.9-0.5,3.7-0.5,5.6c-0.1,3.7,0.6,7.4,2,10.8c1.5,3.4,3.7,6.5,6.5,9.1c2.9,2.7,6.1,5.1,9.5,7.2
	c-4-1.1-7.7-2.9-11.2-5.1c-1.8-1.2-3.4-2.5-4.8-4.1c-1.5-1.6-2.8-3.3-3.8-5.2c-2.1-3.9-3.2-8.2-3.3-12.6c-0.1-4.2,0.4-8.5,1.5-12.6
	c1-4,2.2-7.9,3.3-11.7c1.2-3.7,2-7.5,2.6-11.3c0.6-3.8,0.5-7.6-0.1-11.4C69.9,52.5,68.3,48.8,66,45.6z"/>
</svg>
