<svg id="圖層_1" data-name="圖層 1" xmlns="http://www.w3.org/2000/svg" viewBox="0 0 510.88 188.81"><defs><style>.cls-1{fill:#910034;}</style></defs><path class="cls-1" d="M225.24,97.08c0,19-12.56,30.48-26.16,30.48-13.76,0-26.4-11-26.4-30.48,0-18.88,12.72-30.48,26.4-30.48S225.24,77.56,225.24,97.08Zm-26.16,27c12.48,0,18.4-13.12,18.4-27s-5.92-26.88-18.4-26.88c-12.64,0-18.56,13.12-18.56,26.88S186.44,124,199.08,124Z"/><path class="cls-1" d="M280.92,110.6l-.24,12.64a33.92,33.92,0,0,1-17.36,4.32C245.88,127.56,234,115,234,97.08c0-17.68,12.4-30.48,29.28-30.48a31.68,31.68,0,0,1,16.56,4.32l.32,12.56h-4.4L275,79.23a10.94,10.94,0,0,0-10.75-9h-.09c-12.72,0-22.32,9.76-22.32,26.88,0,17.28,9,26.88,21.76,26.88h.11a12.53,12.53,0,0,0,12.32-10.35l.53-3Z"/><path class="cls-1" d="M336.84,111.16l-.56,15.12h-44.4V123.4h0a9.48,9.48,0,0,0,8.5-9.29c.06-4.89.06-9.82.06-14.79v-4.4c0-4.94,0-9.92-.07-14.86a9.49,9.49,0,0,0-8.49-9.3h0V68h42.8l.56,15h-3.92l-.93-4.94a8.07,8.07,0,0,0-7.93-6.58H316.1a9,9,0,0,0-9,8.87c-.05,4.76-.05,9.65-.05,14.65h5.27a10,10,0,0,0,9.93-8.64h2.28V106.6h-2.28a9.68,9.68,0,0,0-9.6-8.4h-5.6c0,5.84,0,11.22.06,16.43a8.15,8.15,0,0,0,8.15,8.05h9.24a7.45,7.45,0,0,0,7.33-6.13l1-5.39ZM331.5,50.49c-3.52,1.92-14.56,10.59-18.16,12.43l-2.27-1.76c2.8-2.88,14-12,16.75-14.59Z"/><path class="cls-1" d="M399.8,123.4v2.88H376.68V123.4h0a7.07,7.07,0,0,0,6-9.27l-2.49-7.53H359.64l-2.55,7.72a7,7,0,0,0,5.75,9.08h0v2.88h-19.2V123.4h0a11.68,11.68,0,0,0,9.51-7.84L369.32,67.4h4.48l16.46,48.34a11.41,11.41,0,0,0,9.54,7.66Zm-20.72-20.08-9.2-27.68-9.12,27.68Z"/><path class="cls-1" d="M463.24,70.76h0a8.64,8.64,0,0,0-7.45,8.55l-.07,47.61h-2.64l-35.6-49.36.06,37.22a8.5,8.5,0,0,0,7.55,8.43l1.75.19v2.88H406.28V123.4h0a8.62,8.62,0,0,0,7.53-8.54l.06-40.24s0-1.16,0-2.1a.93.93,0,0,0-.72-1l-6.56-.8V68h12.48l30,41.94a1.73,1.73,0,0,0,3.13-1l-.06-27.58a10.64,10.64,0,0,0-9.37-10.55h0V68h20.48Z"/><path class="cls-1" d="M122,34.33c-21.6-12-51.6-13.9-67.5-1.9,3.8,2.5,8.8,3.6,11.5,7.2,3.6,4.9,8.1,7.8,12.9,11.2,5.2,3.5,2.4,5.6,7.2,11l4.3,4.8c5.1,4.4,13.5,4.8,19.7,5,8.3.3,7.6,3,3.7,10.6-1.4,2.7-2.2,4.8.7,7.4,2.1,1.8,5.5,1.5,5.7,2.9a2.69,2.69,0,0,1-.8,2.8,29.07,29.07,0,0,1-3.7,3.3c1,1.8,4,3.1,3.5,4-3.4,5.7.1,9.8,2.6,13.7,3.1,4.9,2.3,8.8-2.2,12.2-5.2,4-11.1,6.9-15.9,11.5-7.37,7-11.24,16.74-8.8,26.5a13.82,13.82,0,0,1-4.7-1.8c-3.2-2-5.8-5.3-8.3-8.7s-4.9-7.1-7.6-10.6a54.92,54.92,0,0,0-4.4-5.2,55.93,55.93,0,0,0-5.2-4.5,89.76,89.76,0,0,0-11.5-6.9l-1.5-.8c-.5-.2-.9-.5-1.3-.7s-.9-.5-1.3-.7l-1.2-.9a21.1,21.1,0,0,1-2.3-1.9,19.85,19.85,0,0,1-2-2.1,27.25,27.25,0,0,1-5.4-10.4,28.09,28.09,0,0,1-.5-11.9c.2-1,.4-2,.6-2.9s.6-1.9.9-2.9a24.43,24.43,0,0,1,1-2.4,23.43,23.43,0,0,1-2.6-4.3c-.9,1.6-1.7,3.3-2.5,5a30.49,30.49,0,0,0-2,6.7,34.26,34.26,0,0,0,.2,13.9,31.87,31.87,0,0,0,6.3,12.6,30.7,30.7,0,0,0,2.5,2.6c.9.8,1.8,1.6,2.7,2.3l1.4,1,1.5.9,1.5.9,1.4.8A91.45,91.45,0,0,1,61.5,140a44.2,44.2,0,0,1,4.7,3.9,58.68,58.68,0,0,1,4.1,4.6c2.7,3.2,5.1,6.8,7.8,10.3a53.67,53.67,0,0,0,4.4,5.1,24.21,24.21,0,0,0,5.6,4.4,17.25,17.25,0,0,0,7,2.1,23.58,23.58,0,0,0,7-.4c1.1-.2,2.2-.6,3.3-.9s2.1-.8,3.1-1.2a47.5,47.5,0,0,0,5.9-3.1,55.47,55.47,0,0,0,6.28-4.48c14.56-9.66,27.08-25.92,31.92-43.62A75,75,0,0,0,122,34.33Z"/><path class="cls-1" d="M52.3,64.23c-.7,1.3-1.4,2.6-2.2,3.9a12,12,0,0,0,2.1,1.7l.2.1c.8-1.5,1.5-3.1,2.2-4.7a36.26,36.26,0,0,0,3-12.9,24.61,24.61,0,0,0-.6-6.6,26.7,26.7,0,0,0-2.4-6.1,24.64,24.64,0,0,1,1.6,12.6A36,36,0,0,1,52.3,64.23Z"/><path class="cls-1" d="M34.3,71.93a77.28,77.28,0,0,1,.2-8.3c-.1.1-.1.2-.2.2a37.09,37.09,0,0,0-8.6,16.1,26.38,26.38,0,0,0,2,17.7A37.43,37.43,0,0,1,29.6,81,39.26,39.26,0,0,1,34.3,71.93Z"/><path class="cls-1" d="M44.3,59.93a49.78,49.78,0,0,0,4.6-6.7,19,19,0,0,0,2.5-9,14.63,14.63,0,0,0-2.7-8.6,16,16,0,0,1,.4,8.4,19.32,19.32,0,0,1-3.5,7.2,46.25,46.25,0,0,1-4,4.8,17.68,17.68,0,0,1,2.1,3.2A2,2,0,0,1,44.3,59.93Z"/><path class="cls-1" d="M41.4,84.53a16.73,16.73,0,0,0,7.6,5.8c2.7,1,7-.2,9.2,1.8l.95.82c0,.06,0,.12,0,.18a44.82,44.82,0,0,0-1.5,12.6,27.82,27.82,0,0,0,3.3,12.6,23.92,23.92,0,0,0,3.8,5.2,23.66,23.66,0,0,0,4.8,4.1,42,42,0,0,0,11.2,5.1,60.85,60.85,0,0,1-9.5-7.2,27.66,27.66,0,0,1-6.5-9.1c-.28-.67-.52-1.35-.74-2,.35-.15.74-.49.94-.56a2.75,2.75,0,0,1,2.2-.2c2.8.9,5.3,1.2,7.8-.7,3.9-2.9,5.8-7.5,6.9-12.1a57,57,0,0,0,1.3-9.1,3.92,3.92,0,0,0-1,.8,45.11,45.11,0,0,1-5.5,5.2,22.74,22.74,0,0,1-3.2,2.2c-1.2.7-2.5,1-3.7,1.7a8.88,8.88,0,0,0-2.2,1.6,8.4,8.4,0,0,0-1.9,3.3,15.54,15.54,0,0,0-.5,2.3,8.2,8.2,0,0,1-.2,2.2,3.74,3.74,0,0,1-1.46,1.52,26.41,26.41,0,0,1-.74-6.92,35.32,35.32,0,0,1,.5-5.6,57.24,57.24,0,0,1,1.1-5.7c.9-3.8,2-7.7,3-11.6a56.3,56.3,0,0,0,1.9-12.3,33,33,0,0,0-1.8-12.5,22.42,22.42,0,0,0-7.2-10,28.26,28.26,0,0,1,4.7,10.8,36.33,36.33,0,0,1,.1,11.4,73.93,73.93,0,0,1-2.6,11.3c-.91,3.15-1.89,6.37-2.76,9.66a3.34,3.34,0,0,0-.54-1.16,6.73,6.73,0,0,1-1.1-1.4c-.3-1,.3-2.2.4-3.3a11.08,11.08,0,0,0-.8-4.4c-1.4-3.8-4.3-6.9-7.2-9.5a54.91,54.91,0,0,1-12.6-16.5c-.3,5.1-1,10.2-.8,15.3S38.4,80.43,41.4,84.53Z"/></svg>