<?xml version="1.0" encoding="utf-8"?>
<!-- Generator: Adobe Illustrator 25.0.0, SVG Export Plug-In . SVG Version: 6.00 Build 0)  -->
<svg version="1.2" baseProfile="tiny" id="圖層_1"
	 xmlns="http://www.w3.org/2000/svg" xmlns:xlink="http://www.w3.org/1999/xlink" x="0px" y="0px" viewBox="0 0 535.8 159.6"
	 overflow="visible" xml:space="preserve">
<path fill="#4C4948" d="M104.6,123.2c3.6-8.3,5.4-18,5.4-28.8c0-11.4-1.9-21.3-5.6-29.4c-3.7-8.1-9.1-14.5-16-18.9
	c-7-4.4-15.7-6.6-26-6.6c-10.6,0-19.7,2.3-26.9,6.9c-7.2,4.6-12.7,11.1-16.3,19.2c-3.6,8.2-5.5,17.8-5.5,28.7
	c0,10.9,1.8,20.6,5.3,28.9c3.5,8.3,8.9,14.8,16,19.4c7.1,4.6,16.1,6.9,26.9,6.9c10.5,0,19.5-2.3,26.6-6.9
	C95.6,137.9,101,131.4,104.6,123.2z M62,142.9c-9.1,0-16.7-2-22.6-6.1c-5.9-4-10.4-9.8-13.3-17.1c-2.8-7.3-4.3-15.8-4.3-25.4
	c0-9.5,1.5-18,4.4-25.2c2.9-7.3,7.5-13,13.5-17c6-4,13.7-6.1,22.8-6.1c13.1,0,23,4.3,29.6,12.9c6.6,8.5,9.9,20.4,9.9,35.4
	c0,9.7-1.4,18.3-4.2,25.5c-2.8,7.3-7.2,13-13.1,17C78.8,140.9,71.1,142.9,62,142.9z"/>
<path fill="#4C4948" d="M206.9,145.5l0.6-5.4v-1.5c-3.8,1.2-8,2.2-12.4,3c-4.4,0.8-9.3,1.2-14.6,1.2c-9.2,0-16.9-2-23.1-6
	c-6.1-4-10.8-9.7-13.9-16.9c-3.1-7.2-4.7-15.8-4.7-25.5c0-9.5,1.7-18,5.1-25.2c3.4-7.2,8.4-12.9,14.8-16.9c6.4-4,14.2-6.1,23.2-6.1
	c8.8,0,17.3,2,24.4,6.1l3.8-6.8c-8.3-4-17.8-6-28.2-6c-10.7,0-20,2.4-27.6,7c-7.6,4.7-13.5,11.2-17.5,19.4c-4,8.2-6.1,17.7-6.1,28.3
	c0,11.1,1.8,20.9,5.5,29.1c3.6,8.2,9.1,14.7,16.3,19.3c7.2,4.6,16.3,6.9,27,6.9c5.8,0,11-0.4,15.4-1.2
	C199.5,147.5,203.6,146.4,206.9,145.5z"/>
<g>
	<polygon fill="#4C4948" points="244.2,40.4 243.6,147.7 243.6,147.9 302.4,147.9 302.9,141.3 302.9,141.3 251.7,140.7 252.4,95.1 
		299.1,95.7 299.5,95.7 300.1,88.6 251.7,88 252.4,47.7 302.2,48.3 302.3,48.3 302.9,41 302.9,41 	"/>
	<path fill="#4C4948" d="M296.4,5v1.2c-1.5,2.1-3.5,4.6-6,7.4c-2.5,2.8-5.1,5.6-8,8.4s-5.5,5.2-8,7.2h-6.1v-1.4
		c1.8-1.9,3.9-4.2,6.1-7c2.3-2.7,4.4-5.5,6.5-8.3c2.1-2.8,3.8-5.3,5.1-7.6H296.4z"/>
</g>
<path fill="#4C4948" d="M383.8,40.7l-7.6-0.4l-31.3,78.3L333.4,148l8.1,0.4l15.3-37.7l45.4,0.4l13.8,36.9h8.4L383.8,40.7z
	 M398.9,104l-29.3-0.6h-9.9l0.1-0.2l-0.6,0l15-38.9c0.6-1.9,1.4-4.2,2.3-6.9c0.9-2.7,1.8-5.3,2.6-7.9l1.2,0c0.8,2.3,1.7,5,2.7,8
	c1,3,1.7,5.3,2.1,6.7l10.3,29.5l3.7,9.8h-0.2L398.9,104z"/>
<path fill="#4C4948" d="M517,109c0,4.1,0,8.6,0.2,13.6c0.1,4.9,0.2,8.9-0.2,12.6l-1.1-0.3L454,41l-8.8-0.6l-0.6,106.7v0.8l7.6,0.6
	V80.4c0-4.8-0.1-9.5-0.2-13.8c-0.1-4.4-0.3-8.5-0.4-12.5l1.6-0.4l62.1,94.2h8.8L524.6,41l-7.6-0.6V109z"/>
<g>
</g>
<g>
</g>
<g>
</g>
<g>
</g>
<g>
</g>
<g>
</g>
</svg>
