<svg id="圖層_1" data-name="圖層 1" xmlns="http://www.w3.org/2000/svg" viewBox="0 0 318.76 98.23"><defs><style>.cls-1{fill:#910034;}</style></defs><path class="cls-1" d="M69.89,55.87c0,19-12.56,30.48-26.16,30.48-13.76,0-26.4-11-26.4-30.48,0-18.88,12.72-30.48,26.4-30.48S69.89,36.35,69.89,55.87Zm-26.16,27c12.48,0,18.4-13.12,18.4-27S56.21,29,43.73,29C31.09,29,25.17,42.11,25.17,55.87S31.09,82.83,43.73,82.83Z"/><path class="cls-1" d="M125.57,69.39,125.33,82A33.92,33.92,0,0,1,108,86.35c-17.44,0-29.28-12.56-29.28-30.48,0-17.68,12.4-30.48,29.28-30.48a31.68,31.68,0,0,1,16.56,4.32l.32,12.56h-4.4L119.69,38a11,11,0,0,0-10.75-9h-.09c-12.72,0-22.32,9.76-22.32,26.88,0,17.28,9,26.88,21.76,26.88h.11A12.53,12.53,0,0,0,120.72,72.4l.53-3Z"/><path class="cls-1" d="M181.49,70l-.56,15.12H136.52V82.19h0A9.47,9.47,0,0,0,145,72.9c.06-4.88.06-9.82.06-14.79v-4.4c0-4.94,0-9.91-.06-14.86a9.49,9.49,0,0,0-8.5-9.3h0v-2.8h42.81l.56,15H176L175,36.85a8.08,8.08,0,0,0-7.93-6.58h-6.36a9,9,0,0,0-9,8.87c-.06,4.76-.06,9.65-.06,14.65H157a10,10,0,0,0,9.92-8.64h2.28V65.39h-2.28a9.68,9.68,0,0,0-9.59-8.4h-5.61c0,5.84,0,11.23.07,16.44a8.14,8.14,0,0,0,8.14,8h9.24a7.45,7.45,0,0,0,7.34-6.13l1-5.39ZM176.15,9.28C172.63,11.2,161.59,19.87,158,21.71L155.72,20c2.8-2.88,14-12,16.75-14.59Z"/><path class="cls-1" d="M244.45,82.19v2.88H221.32V82.19h0a7.08,7.08,0,0,0,6-9.27l-2.5-7.53H204.28l-2.54,7.73a6.94,6.94,0,0,0,5.74,9.07h0v2.88h-19.2V82.19h0a11.64,11.64,0,0,0,9.51-7.84L214,26.19h4.48l16.47,48.35a11.38,11.38,0,0,0,9.54,7.65ZM223.72,62.11l-9.2-27.68L205.4,62.11Z"/><path class="cls-1" d="M307.89,29.55h0a8.67,8.67,0,0,0-7.46,8.56l-.06,47.6h-2.64L262.12,36.35l.07,37.23A8.5,8.5,0,0,0,269.74,82l1.75.19v2.88H250.92V82.19h0a8.61,8.61,0,0,0,7.54-8.54l.06-40.24v-2.1a.94.94,0,0,0-.72-1l-6.56-.8V26.75h12.48l30,41.94a1.73,1.73,0,0,0,3.13-1l-.06-27.58a10.64,10.64,0,0,0-9.37-10.55h0v-2.8h20.48Z"/></svg>