<?xml version="1.0" encoding="utf-8"?>
<!-- Generator: Adobe Illustrator 25.0.0, SVG Export Plug-In . SVG Version: 6.00 Build 0)  -->
<svg version="1.1" id="_x32_" xmlns="http://www.w3.org/2000/svg" xmlns:xlink="http://www.w3.org/1999/xlink" x="0px" y="0px"
	 viewBox="0 0 512 512" style="enable-background:new 0 0 512 512;" xml:space="preserve">
<style type="text/css">
	.st0{fill:#B5B5B6;}
</style>
<g>
	<path class="st0" d="M437.2,232.7c-28.7-11.6-50-32.7-71.3-66.6c-24.8-39.5-26.6-72.5-37.7-94.9c-11.6-23.6-38.6-46.9-72.1-46.9
		S195.7,47.6,184,71.2c-11.1,22.4-12.9,61.6-31.5,100.3c-17.4,36.2-51.1,54.3-77.5,61.2c-23,6.1-16.2,26.1-16.2,26.1L79,405
		c6.6,47.4,47.1,82.7,94.9,82.7h164.3c47.8,0,88.3-35.3,94.9-82.7l20.2-146.2C453.3,258.9,459.2,241.7,437.2,232.7z M306.7,188.7
		c0,16.1-4.1,30.9-7.1,37.1c-6.9,14.1-23.5,20.2-43.5,20.2s-36.5-6.1-43.5-20.2c-3-6.2-7.1-21-7.1-37.1v-51.1
		c0-16.1,4.1-30.9,7.1-37.1c6.9-14.1,23.5-29.2,43.5-29.2s36.5,15.1,43.5,29.2c3,6.1,7.1,21,7.1,37.1V188.7z"/>
</g>
</svg>
