<svg id="圖層_1" data-name="圖層 1" xmlns="http://www.w3.org/2000/svg" viewBox="0 0 199.4 189.8"><defs><style>.cls-1{fill:#595757;}</style></defs><path class="cls-1" d="M135.21,17.31C108.58,2.52,71.6.18,52,15c4.68,3.08,10.84,4.44,14.17,8.88,4.44,6,10,9.61,15.91,13.8C88.49,42,85,44.56,91,51.21l5.3,5.92c6.29,5.43,16.65,5.92,24.29,6.16,10.23.37,9.37,3.7,4.56,13.07-1.73,3.33-2.71,5.92.86,9.13,2.59,2.21,6.78,1.84,7,3.57a3.31,3.31,0,0,1-1,3.45,34.69,34.69,0,0,1-4.56,4.07c1.24,2.22,4.93,3.82,4.32,4.93-4.19,7,.12,12.08,3.2,16.89,3.82,6,2.84,10.85-2.71,15-6.41,4.93-13.68,8.51-19.6,14.18-9.08,8.63-13.86,20.63-10.84,32.66a17.12,17.12,0,0,1-5.8-2.21c-4-2.47-7.15-6.53-10.24-10.73s-6-8.75-9.37-13.06A66.73,66.73,0,0,0,71,147.87a66.6,66.6,0,0,0-6.41-5.55,110.67,110.67,0,0,0-14.18-8.51l-1.85-1a16.74,16.74,0,0,1-1.6-.86c-.49-.24-1.11-.61-1.6-.86L43.86,130A26.75,26.75,0,0,1,41,127.65a25.1,25.1,0,0,1-2.46-2.59,33.62,33.62,0,0,1-6.66-12.82,34.72,34.72,0,0,1-.62-14.67c.25-1.24.5-2.47.74-3.58s.74-2.34,1.11-3.57a27.76,27.76,0,0,1,1.24-3,28.24,28.24,0,0,1-3.21-5.3c-1.11,2-2.1,4.06-3.08,6.16a38.05,38.05,0,0,0-2.47,8.26,42.3,42.3,0,0,0,.25,17.14,39.31,39.31,0,0,0,7.77,15.53,37.33,37.33,0,0,0,3.08,3.21c1.11,1,2.22,2,3.33,2.83l1.72,1.23,1.85,1.11,1.85,1.11,1.73,1a112.15,112.15,0,0,1,13.43,7.89,53.83,53.83,0,0,1,5.8,4.81,70.4,70.4,0,0,1,5,5.67c3.33,3.94,6.29,8.38,9.62,12.7a67.83,67.83,0,0,0,5.42,6.28,29.94,29.94,0,0,0,6.91,5.43,21.26,21.26,0,0,0,8.63,2.59,29.19,29.19,0,0,0,8.63-.5c1.35-.24,2.71-.74,4.06-1.11s2.59-1,3.83-1.48a58.71,58.71,0,0,0,7.27-3.82,70.5,70.5,0,0,0,7.74-5.52c17.95-11.91,33.38-32,39.35-53.78A92.39,92.39,0,0,0,135.21,17.31Z"/><path class="cls-1" d="M49.28,54.17c-.86,1.6-1.72,3.21-2.71,4.81a14.82,14.82,0,0,0,2.59,2.1l.25.12c1-1.85,1.85-3.82,2.71-5.8a44.68,44.68,0,0,0,3.7-15.9,30.69,30.69,0,0,0-.74-8.13,33.15,33.15,0,0,0-3-7.52,30.38,30.38,0,0,1,2,15.53A44.24,44.24,0,0,1,49.28,54.17Z"/><path class="cls-1" d="M27.09,63.66a95.24,95.24,0,0,1,.25-10.23c-.12.13-.12.25-.25.25a45.69,45.69,0,0,0-10.6,19.85A32.49,32.49,0,0,0,19,95.35,46.2,46.2,0,0,1,21.3,74.88,48.91,48.91,0,0,1,27.09,63.66Z"/><path class="cls-1" d="M39.42,48.87a60.53,60.53,0,0,0,5.67-8.26,23.43,23.43,0,0,0,3.08-11.09,18.06,18.06,0,0,0-3.33-10.61,19.69,19.69,0,0,1,.5,10.36A23.93,23.93,0,0,1,41,38.15a57.18,57.18,0,0,1-4.93,5.91A21.89,21.89,0,0,1,38.68,48,2.47,2.47,0,0,1,39.42,48.87Z"/><path class="cls-1" d="M35.85,79.2a20.7,20.7,0,0,0,9.36,7.15c3.33,1.23,8.63-.25,11.35,2.22l1.17,1-.06.23a54.86,54.86,0,0,0-1.85,15.53,34.37,34.37,0,0,0,4.06,15.54,30,30,0,0,0,4.69,6.41,29.35,29.35,0,0,0,5.92,5.05,51.89,51.89,0,0,0,13.8,6.29,75.31,75.31,0,0,1-11.71-8.88,34,34,0,0,1-8-11.22c-.34-.82-.64-1.66-.91-2.52.43-.18.91-.6,1.16-.68a3.38,3.38,0,0,1,2.71-.25c3.45,1.11,6.53,1.48,9.61-.86,4.81-3.58,7.15-9.25,8.51-14.92a69.87,69.87,0,0,0,1.6-11.22,5,5,0,0,0-1.23,1,55.58,55.58,0,0,1-6.78,6.41,27.87,27.87,0,0,1-3.94,2.71c-1.48.87-3.09,1.24-4.57,2.1a11,11,0,0,0-2.71,2,10.31,10.31,0,0,0-2.34,4.07,19.44,19.44,0,0,0-.62,2.84,10,10,0,0,1-.24,2.71,4.59,4.59,0,0,1-1.8,1.86,32.55,32.55,0,0,1-.92-8.52,43.48,43.48,0,0,1,.62-6.9,69.14,69.14,0,0,1,1.36-7c1.11-4.69,2.46-9.49,3.69-14.3a69.41,69.41,0,0,0,2.35-15.16A40.89,40.89,0,0,0,67.9,46.41,27.63,27.63,0,0,0,59,34.08a34.77,34.77,0,0,1,5.8,13.31,44.81,44.81,0,0,1,.12,14.06,91.47,91.47,0,0,1-3.21,13.93c-1.11,3.86-2.31,7.81-3.39,11.85a4,4,0,0,0-.67-1.37,8.23,8.23,0,0,1-1.36-1.73c-.37-1.23.37-2.71.49-4.07a13.6,13.6,0,0,0-1-5.42c-1.73-4.69-5.3-8.51-8.88-11.72A67.57,67.57,0,0,1,31.41,42.58c-.37,6.29-1.24,12.58-1,18.87S32.15,74.14,35.85,79.2Z"/></svg>