<?xml version="1.0" encoding="utf-8"?>
<!-- Generator: Adobe Illustrator 25.0.0, SVG Export Plug-In . SVG Version: 6.00 Build 0)  -->
<svg version="1.1" id="圖層_1" xmlns="http://www.w3.org/2000/svg" xmlns:xlink="http://www.w3.org/1999/xlink" x="0px" y="0px"
	 viewBox="0 0 199.4 189.8" style="enable-background:new 0 0 199.4 189.8;" xml:space="preserve">
<style type="text/css">
	.st0{fill:#595757;}
</style>
<g>
	<path class="st0" d="M135.2,17.3C108.6,2.5,71.6,0.2,52,15c4.7,3.1,10.8,4.4,14.2,8.9c4.4,6,10,9.6,15.9,13.8
		C88.5,42,85,44.6,91,51.2l5.3,5.9c6.3,5.4,16.7,5.9,24.3,6.2c10.2,0.4,9.4,3.7,4.6,13.1c-1.7,3.3-2.7,5.9,0.9,9.1
		c2.6,2.2,6.8,1.8,7,3.6c0.4,1.2,0,2.6-1,3.4c-1.4,1.5-2.9,2.9-4.6,4.1c1.2,2.2,4.9,3.8,4.3,4.9c-4.2,7,0.1,12.1,3.2,16.9
		c3.8,6,2.8,10.9-2.7,15c-6.4,4.9-13.7,8.5-19.6,14.2c-9.1,8.6-13.9,20.6-10.8,32.7c-2.1-0.4-4-1.1-5.8-2.2
		c-4-2.5-7.2-6.5-10.2-10.7s-6-8.8-9.4-13.1c-1.7-2.2-3.5-4.4-5.4-6.4c-2-2-4.2-3.8-6.4-5.6c-4.5-3.2-9.2-6-14.2-8.5l-1.8-1
		c-0.5-0.3-1.1-0.5-1.6-0.9c-0.5-0.2-1.1-0.6-1.6-0.9l-1.5-1.1c-1-0.7-2-1.5-2.9-2.4c-0.9-0.8-1.7-1.7-2.5-2.6
		c-3.1-3.7-5.4-8.1-6.7-12.8c-1.3-4.8-1.5-9.8-0.6-14.7c0.2-1.2,0.5-2.5,0.7-3.6c0.2-1.1,0.7-2.3,1.1-3.6c0.4-1,0.8-2,1.2-3
		c-1.3-1.6-2.3-3.4-3.2-5.3c-1.1,2-2.1,4.1-3.1,6.2c-1.1,2.7-2,5.4-2.5,8.3c-1.1,5.7-1,11.5,0.2,17.1c1.4,5.7,4.1,11,7.8,15.5
		c1,1.1,2,2.2,3.1,3.2c1.1,1,2.2,2,3.3,2.8l1.7,1.2l1.8,1.1l1.8,1.1l1.7,1c4.7,2.3,9.1,5,13.4,7.9c2,1.5,4,3.1,5.8,4.8
		c1.8,1.8,3.4,3.7,5,5.7c3.3,3.9,6.3,8.4,9.6,12.7c1.7,2.2,3.5,4.3,5.4,6.3c2,2.1,4.4,4,6.9,5.4c2.7,1.5,5.6,2.4,8.6,2.6
		c2.9,0.3,5.8,0.1,8.6-0.5c1.3-0.2,2.7-0.7,4.1-1.1s2.6-1,3.8-1.5c2.5-1.1,4.9-2.4,7.3-3.8c2.7-1.7,5.3-3.5,7.7-5.5
		c17.9-11.9,33.4-32,39.3-53.8C183.5,80.4,168.4,39.5,135.2,17.3z"/>
	<path class="st0" d="M49.3,54.2c-0.9,1.6-1.7,3.2-2.7,4.8c0.8,0.8,1.7,1.5,2.6,2.1l0.2,0.1c1-1.8,1.8-3.8,2.7-5.8
		c2.2-5,3.5-10.4,3.7-15.9c0.1-2.7-0.1-5.5-0.7-8.1c-0.7-2.6-1.7-5.1-3-7.5c2,4.9,2.7,10.3,2,15.5C53.4,44.6,51.7,49.6,49.3,54.2z"
		/>
	<path class="st0" d="M27.1,63.7c-0.1-3.4,0-6.8,0.2-10.2c-0.1,0.1-0.1,0.2-0.2,0.2c-5.1,5.6-8.8,12.5-10.6,19.8
		c-1.7,7.3-0.8,15.1,2.5,21.8c-0.8-6.9,0-13.9,2.3-20.5C22.7,70.9,24.7,67.1,27.1,63.7z"/>
	<path class="st0" d="M39.4,48.9c2.1-2.6,4-5.4,5.7-8.3c1.9-3.4,3-7.2,3.1-11.1c0-3.8-1.1-7.5-3.3-10.6c1.1,3.3,1.3,6.9,0.5,10.4
		c-0.8,3.2-2.3,6.3-4.3,8.9c-1.5,2.1-3.2,4.1-4.9,5.9c1,1.2,1.9,2.5,2.6,3.9C39,48.2,39.2,48.5,39.4,48.9z"/>
	<path class="st0" d="M35.8,79.2c2.4,3.2,5.6,5.7,9.4,7.2c3.3,1.2,8.6-0.2,11.3,2.2l1.2,1l-0.1,0.2c-1.4,5.1-2,10.3-1.8,15.5
		c0.1,5.4,1.5,10.8,4.1,15.5c1.3,2.3,2.8,4.5,4.7,6.4c1.7,1.9,3.7,3.6,5.9,5.1c4.3,2.8,8.9,4.9,13.8,6.3c-4.2-2.6-8.1-5.5-11.7-8.9
		c-3.4-3.2-6.1-7-8-11.2c-0.3-0.8-0.6-1.7-0.9-2.5c0.4-0.2,0.9-0.6,1.2-0.7c0.8-0.5,1.8-0.6,2.7-0.2c3.4,1.1,6.5,1.5,9.6-0.9
		c4.8-3.6,7.2-9.2,8.5-14.9c0.8-3.7,1.4-7.4,1.6-11.2c-0.5,0.3-0.9,0.6-1.2,1c-2.1,2.3-4.3,4.5-6.8,6.4c-1.2,1-2.6,1.9-3.9,2.7
		c-1.5,0.9-3.1,1.2-4.6,2.1c-1,0.5-1.9,1.2-2.7,2c-1.1,1.2-1.9,2.6-2.3,4.1c-0.3,0.9-0.5,1.9-0.6,2.8c0,0.9,0,1.8-0.2,2.7
		c-0.4,0.8-1,1.4-1.8,1.9c-0.7-2.8-1-5.7-0.9-8.5c0-2.3,0.2-4.6,0.6-6.9c0.3-2.4,0.8-4.7,1.4-7c1.1-4.7,2.5-9.5,3.7-14.3
		c1.3-5,2.1-10,2.3-15.2c0.3-5.3-0.5-10.5-2.2-15.5c-1.8-4.9-4.8-9.1-8.9-12.3c2.8,4,4.8,8.5,5.8,13.3c0.8,4.7,0.8,9.4,0.1,14.1
		c-0.7,4.7-1.8,9.4-3.2,13.9c-1.1,3.9-2.3,7.8-3.4,11.8c-0.1-0.5-0.4-1-0.7-1.4c-0.5-0.5-1-1.1-1.4-1.7c-0.4-1.2,0.4-2.7,0.5-4.1
		c0-1.9-0.3-3.7-1-5.4c-1.7-4.7-5.3-8.5-8.9-11.7c-6.4-5.7-11.7-12.6-15.5-20.3c-0.4,6.3-1.2,12.6-1,18.9S32.2,74.1,35.8,79.2z"/>
</g>
</svg>
