<?xml version="1.0" encoding="utf-8"?>
<!-- Generator: Adobe Illustrator 25.0.0, SVG Export Plug-In . SVG Version: 6.00 Build 0)  -->
<svg version="1.1" id="圖層_1" xmlns="http://www.w3.org/2000/svg" xmlns:xlink="http://www.w3.org/1999/xlink" x="0px" y="0px"
	 viewBox="0 0 52.05 20.92" style="enable-background:new 0 0 52.05 20.92;" xml:space="preserve">
<style type="text/css">
	.st0{enable-background:new    ;}
</style>
<g class="st0">
	<path d="M12.31,10.52c0,1.49-0.44,2.69-1.31,3.58c-0.87,0.9-1.88,1.34-3.03,1.34c-1.1,0-2.07-0.41-2.9-1.23
		c-0.83-0.82-1.25-1.93-1.25-3.33c0-1.51,0.44-2.71,1.31-3.6c0.87-0.89,1.88-1.33,3.03-1.33c1.1,0,2.07,0.41,2.9,1.23
		S12.31,9.13,12.31,10.52z M11.08,10.68c0-1.19-0.31-2.12-0.94-2.77C9.51,7.26,8.79,6.93,7.97,6.93c-0.76,0-1.43,0.34-2.03,1.03
		c-0.59,0.69-0.89,1.61-0.89,2.76c0,1.2,0.32,2.12,0.95,2.78c0.63,0.66,1.35,0.98,2.17,0.98c0.76,0,1.43-0.35,2.02-1.05
		S11.08,11.82,11.08,10.68z"/>
	<path d="M20.56,14.08l-0.09,1.03c-0.57,0.17-1.19,0.26-1.86,0.26c-1.59,0-2.79-0.44-3.59-1.31c-0.8-0.87-1.2-1.94-1.2-3.2
		c0-1.32,0.45-2.45,1.34-3.41s2.09-1.43,3.6-1.43c0.42,0,0.86,0.06,1.32,0.19l-0.19,1.1c-0.53-0.17-1.01-0.25-1.42-0.25
		c-1.12,0-1.97,0.35-2.55,1.04c-0.58,0.69-0.87,1.54-0.87,2.55c0,1.02,0.33,1.9,1,2.63c0.67,0.73,1.59,1.1,2.76,1.1
		C19.26,14.38,19.85,14.28,20.56,14.08z"/>
	<path d="M27.88,14.13l-0.04,1.05h-5.59c0.06-1.43,0.1-3.02,0.1-4.75c0-1.63-0.03-3.06-0.1-4.29h5.25l-0.06,1.03
		c-1.27-0.06-2.62-0.08-4.04-0.08c0.03,0.72,0.04,1.69,0.04,2.91c1.23,0,2.33-0.03,3.29-0.08v1.03c-1.03-0.04-2.12-0.06-3.29-0.06
		c0,1.19,0.02,2.3,0.06,3.34C25.03,14.24,26.49,14.2,27.88,14.13z M27.17,3.46c0,0.05-0.31,0.37-0.92,0.94
		c-0.62,0.57-0.95,0.89-0.99,0.96h-0.83c0-0.07,0.21-0.4,0.62-0.97c0.42-0.57,0.62-0.88,0.62-0.93H27.17z"/>
	<path d="M37.02,15.18h-1.46c0-0.31-0.29-1.28-0.87-2.92h-4c-0.57,1.61-0.86,2.59-0.86,2.92h-1.4c0-0.17,0.6-1.65,1.79-4.44
		C31.4,7.96,32,6.42,32,6.15h1.61c0,0.27,0.57,1.78,1.71,4.53S37.02,14.93,37.02,15.18z M34.36,11.35
		c-1.09-2.71-1.63-4.16-1.63-4.33h-0.08c0,0.14-0.56,1.59-1.69,4.33H34.36z"/>
	<path d="M45.36,15.18h-0.97c0-0.08-0.76-1.19-2.28-3.32c-1.59-2.24-2.49-3.66-2.71-4.25h-0.07c0.08,1.11,0.12,2.07,0.12,2.87
		c0,1.55,0.03,3.12,0.1,4.7H38.4c0.08-1.5,0.12-3.08,0.12-4.75c0-1.63-0.04-3.06-0.12-4.29h1.33c0,0.13,0.7,1.18,2.09,3.16
		c1.46,2.08,2.29,3.44,2.5,4.07h0.07c-0.08-1.13-0.12-2.09-0.12-2.87c0-1.71-0.03-3.16-0.1-4.36h1.19
		c-0.08,1.23-0.12,2.65-0.12,4.29C45.25,12.09,45.28,13.68,45.36,15.18z"/>
</g>
</svg>
