<?xml version="1.0" encoding="utf-8"?>
<!-- Generator: Adobe Illustrator 25.0.0, SVG Export Plug-In . SVG Version: 6.00 Build 0)  -->
<svg version="1.2" baseProfile="tiny" id="Layer_1" xmlns="http://www.w3.org/2000/svg" xmlns:xlink="http://www.w3.org/1999/xlink"
	 x="0px" y="0px" viewBox="0 0 459 459" overflow="visible" xml:space="preserve">
<path fill="#4C4948" d="M190.8,223.2c-0.6-0.5-1-0.8-1.3-1c-15.6-9.8-26.8-23.4-34.8-39.8c-5.4-11.2-8.7-22.9-10.2-35.2
	c-2.7-22.2,0.4-43.5,9.8-63.8c6.8-14.5,16.5-26.9,29.3-36.6c10.9-8.3,23.2-13.2,36.7-15.1c18.2-2.6,34.9,1.7,50.3,11.3
	c14.5,9,25.2,21.4,33,36.4c6.4,12.4,10.4,25.5,11.9,39.4c2.6,23.1-1,45.2-11.5,66c-7.8,15.4-18.7,28-33.3,37.3
	c-0.5,0.3-0.9,0.6-1.5,1.1c0.9,0.3,1.4,0.6,2,0.8c20.5,7,38.2,18.5,53.8,33.5c20.2,19.6,34.6,42.9,44.5,69c4.1,10.7,7.3,21.8,9.6,33
	c1.5,7.7-0.5,14.1-6.4,19.3c-25.6,22.4-54.9,38-87.9,46.5c-10.7,2.8-21.5,4.8-32.5,5.9c-12.3,1.2-24.7,1.3-37,0.5
	c-15.2-1-30-3.5-44.7-7.6c-26.9-7.6-51.3-20.2-73.4-37.3c-2.7-2.1-5.3-4.3-8-6.4c-0.9-0.8-1.8-1.6-2.7-2.5c-5-5-7-11-5.6-17.9
	c6.6-32.5,19.7-62,40.7-87.8c13.8-17,30.3-30.8,49.9-40.8c5.5-2.8,11.1-5.2,17-7.2C189,223.8,189.7,223.6,190.8,223.2z"/>
</svg>
