<svg id="圖層_1" data-name="圖層 1" xmlns="http://www.w3.org/2000/svg" viewBox="0 0 30 30"><defs><style>.cls-1,.cls-2{fill:none;stroke:#5e5d5c;}.cls-1{stroke-miterlimit:10;}.cls-2{stroke-linecap:round;stroke-linejoin:round;}</style></defs><circle class="cls-1" cx="15.08" cy="8.44" r="5.79"/><path class="cls-2" d="M14.69,15.84h.57a10.06,10.06,0,0,1,4.65,1.35,10.7,10.7,0,0,1,2.21,1.65,11.2,11.2,0,0,1,3.1,5.85,3.47,3.47,0,0,1,.05,1.36,1.61,1.61,0,0,1-.85,1.1,3.14,3.14,0,0,1-1.34.19H7.38a3.37,3.37,0,0,1-2.2-.51,2.11,2.11,0,0,1-.41-2.07,11.26,11.26,0,0,1,2.81-5.6,11.07,11.07,0,0,1,3.86-2.63,9.41,9.41,0,0,1,3.25-.7"/></svg>