<svg id="_2" data-name="2" xmlns="http://www.w3.org/2000/svg" viewBox="0 0 512 512"><defs><style>.cls-1{fill:#fff;}</style></defs><path class="cls-1" d="M419.56,0H92.44A92.44,92.44,0,0,0,0,92.44V419.56A92.44,92.44,0,0,0,92.44,512H419.56A92.44,92.44,0,0,0,512,419.56V92.44A92.44,92.44,0,0,0,419.56,0Zm-17,326.56h0c-39.11,45-126.56,99.86-146.46,108.24s-16.95-5.35-16.14-10.05c.48-2.81,2.66-16,2.66-16,.62-4.77,1.28-12.15-.6-16.85-2.09-5.18-10.35-7.88-16.43-9.19C136,370.9,69.66,308.27,69.66,233.49c0-83.42,83.64-151.29,186.43-151.29S442.5,150.07,442.5,233.49C442.5,266.87,429.55,297,402.52,326.56Z"/><path class="cls-1" d="M183.11,283.12h-37a9.78,9.78,0,0,1-9.77-9.78V199.25a9.77,9.77,0,1,1,19.54,0v64.3h27.26a9.79,9.79,0,0,1,0,19.57Z"/><path class="cls-1" d="M221.41,273.34a9.77,9.77,0,1,1-19.54,0V199.25a9.77,9.77,0,1,1,19.54,0Z"/><path class="cls-1" d="M310.58,273.34A9.77,9.77,0,0,1,293,279.21l-38-51.7v45.83a9.79,9.79,0,0,1-19.57,0V199.25a9.77,9.77,0,0,1,6.69-9.27,9.67,9.67,0,0,1,3.1-.5,9.86,9.86,0,0,1,7.81,3.91l38,51.7V199.25a9.78,9.78,0,0,1,19.55,0Z"/><path class="cls-1" d="M370.52,226.52a9.78,9.78,0,1,1,0,19.55H343.25v17.5h27.27a9.78,9.78,0,1,1,0,19.55h-37a9.79,9.79,0,0,1-9.77-9.78v-37h0v-37a9.78,9.78,0,0,1,9.77-9.77h37a9.77,9.77,0,1,1,0,19.54H343.25v17.49h27.27Z"/></svg>