<svg id="圖層_1" data-name="圖層 1" xmlns="http://www.w3.org/2000/svg" viewBox="0 0 155.91 155.91"><defs><style>.cls-1{fill:#3e3a39;}</style></defs><path class="cls-1" d="M109.78,14.86C88.18,2.86,58.18,1,42.28,13c3.8,2.5,8.8,3.6,11.5,7.2,3.6,4.9,8.1,7.8,12.9,11.2,5.2,3.5,2.4,5.6,7.2,11l4.3,4.8c5.1,4.4,13.5,4.8,19.7,5,8.3.3,7.6,3,3.7,10.6-1.4,2.7-2.2,4.8.7,7.4,2.1,1.8,5.5,1.5,5.7,2.9a2.69,2.69,0,0,1-.8,2.8,29.07,29.07,0,0,1-3.7,3.3c1,1.8,4,3.1,3.5,4-3.4,5.7.1,9.8,2.6,13.7,3.1,4.9,2.3,8.8-2.2,12.2-5.2,4-11.1,6.9-15.9,11.5-7.37,7-11.24,16.74-8.8,26.49a14,14,0,0,1-4.7-1.79c-3.2-2-5.8-5.3-8.3-8.7s-4.9-7.1-7.6-10.6a54.92,54.92,0,0,0-4.4-5.2,55.93,55.93,0,0,0-5.2-4.5,89.76,89.76,0,0,0-11.5-6.9l-1.5-.8c-.5-.2-.9-.5-1.3-.7s-.9-.5-1.3-.7l-1.2-.9a21.1,21.1,0,0,1-2.3-1.9,19.85,19.85,0,0,1-2-2.1A27.25,27.25,0,0,1,26,91.86a28.09,28.09,0,0,1-.5-11.9c.2-1,.4-2,.6-2.9s.6-1.9.9-2.9a24.43,24.43,0,0,1,1-2.4,23.43,23.43,0,0,1-2.6-4.3c-.9,1.6-1.7,3.3-2.5,5a30.49,30.49,0,0,0-2,6.7,34.26,34.26,0,0,0,.2,13.9,31.87,31.87,0,0,0,6.3,12.6,30.7,30.7,0,0,0,2.5,2.6c.9.8,1.8,1.6,2.7,2.3l1.4,1,1.5.9,1.5.9,1.4.8a91.45,91.45,0,0,1,10.9,6.4,44.2,44.2,0,0,1,4.7,3.9,58.68,58.68,0,0,1,4.1,4.6c2.7,3.2,5.1,6.8,7.8,10.3a53.67,53.67,0,0,0,4.4,5.1,24.21,24.21,0,0,0,5.6,4.4,17.25,17.25,0,0,0,7,2.1,23.58,23.58,0,0,0,7-.4c1.1-.2,2.2-.6,3.3-.9s2.1-.8,3.1-1.2a47.5,47.5,0,0,0,5.9-3.1,58.11,58.11,0,0,0,6.28-4.48C123,131.21,135.54,115,140.38,97.26A75,75,0,0,0,109.78,14.86Z"/><path class="cls-1" d="M40.08,44.76c-.7,1.3-1.4,2.6-2.2,3.9a12,12,0,0,0,2.1,1.7l.2.1c.8-1.5,1.5-3.1,2.2-4.7a36.26,36.26,0,0,0,3-12.9,24.61,24.61,0,0,0-.6-6.6,26.7,26.7,0,0,0-2.4-6.1A24.64,24.64,0,0,1,44,32.76,36,36,0,0,1,40.08,44.76Z"/><path class="cls-1" d="M22.08,52.46a77.28,77.28,0,0,1,.2-8.3c-.1.1-.1.2-.2.2a37.09,37.09,0,0,0-8.6,16.1,26.38,26.38,0,0,0,2,17.7,37.43,37.43,0,0,1,1.9-16.6A39.26,39.26,0,0,1,22.08,52.46Z"/><path class="cls-1" d="M32.08,40.46a49.78,49.78,0,0,0,4.6-6.7,19,19,0,0,0,2.5-9,14.63,14.63,0,0,0-2.7-8.6,16,16,0,0,1,.4,8.4,19.32,19.32,0,0,1-3.5,7.2,46.25,46.25,0,0,1-4,4.8,17.68,17.68,0,0,1,2.1,3.2A2,2,0,0,1,32.08,40.46Z"/><path class="cls-1" d="M29.18,65.06a16.73,16.73,0,0,0,7.6,5.8c2.7,1,7-.2,9.2,1.8l1,.81a1.05,1.05,0,0,0,0,.19,44.82,44.82,0,0,0-1.5,12.6,27.82,27.82,0,0,0,3.3,12.6,23.92,23.92,0,0,0,3.8,5.2,23.66,23.66,0,0,0,4.8,4.1,42,42,0,0,0,11.2,5.1,60.85,60.85,0,0,1-9.5-7.2,27.66,27.66,0,0,1-6.5-9.1c-.28-.67-.52-1.36-.74-2,.35-.15.74-.49.94-.55a2.75,2.75,0,0,1,2.2-.2c2.8.9,5.3,1.2,7.8-.7,3.9-2.9,5.8-7.5,6.9-12.1a57,57,0,0,0,1.3-9.1,3.92,3.92,0,0,0-1,.8,45.11,45.11,0,0,1-5.5,5.2,22.74,22.74,0,0,1-3.2,2.2c-1.2.7-2.5,1-3.7,1.7a8.88,8.88,0,0,0-2.2,1.6,8.4,8.4,0,0,0-1.9,3.3,15.54,15.54,0,0,0-.5,2.3,8.2,8.2,0,0,1-.2,2.2,3.71,3.71,0,0,1-1.46,1.51,26.29,26.29,0,0,1-.74-6.91,35.32,35.32,0,0,1,.5-5.6,57.24,57.24,0,0,1,1.1-5.7c.9-3.8,2-7.7,3-11.6A56.3,56.3,0,0,0,57,51a33,33,0,0,0-1.8-12.5,22.42,22.42,0,0,0-7.2-10,28.26,28.26,0,0,1,4.7,10.8,36.33,36.33,0,0,1,.1,11.4A73.93,73.93,0,0,1,50.18,62c-.91,3.15-1.89,6.37-2.76,9.65a3.48,3.48,0,0,0-.54-1.15,6.73,6.73,0,0,1-1.1-1.4c-.3-1,.3-2.2.4-3.3a11.08,11.08,0,0,0-.8-4.4c-1.4-3.8-4.3-6.9-7.2-9.5a54.91,54.91,0,0,1-12.6-16.5c-.3,5.1-1,10.2-.8,15.3S26.18,61,29.18,65.06Z"/></svg>