<svg id="圖層_1" data-name="圖層 1" xmlns="http://www.w3.org/2000/svg" viewBox="0 0 318.76 91.32"><defs><style>.cls-1{fill:#3e3a39;}</style></defs><path class="cls-1" d="M62.92,54.42c0,19-12.56,30.49-26.16,30.49-13.76,0-26.4-11-26.4-30.49,0-18.88,12.72-30.48,26.4-30.48S62.92,34.9,62.92,54.42Zm-26.16,27c12.48,0,18.4-13.12,18.4-27s-5.92-26.88-18.4-26.88c-12.64,0-18.56,13.12-18.56,26.88S24.12,81.38,36.76,81.38Z"/><path class="cls-1" d="M118.6,67.94l-.24,12.65A33.92,33.92,0,0,1,101,84.91c-17.44,0-29.28-12.57-29.28-30.49,0-17.68,12.4-30.48,29.28-30.48a31.68,31.68,0,0,1,16.56,4.32l.32,12.56h-4.4l-.76-4.25a11,11,0,0,0-10.75-9h-.09c-12.72,0-22.32,9.76-22.32,26.88,0,17.28,9,26.89,21.76,26.89h.11A12.55,12.55,0,0,0,113.75,71l.53-3Z"/><path class="cls-1" d="M174.52,68.51,174,83.63h-44.4V80.75h0a9.5,9.5,0,0,0,8.5-9.3c.06-4.88.06-9.82.06-14.79v-4.4c0-4.94,0-9.91-.06-14.86a9.5,9.5,0,0,0-8.5-9.3h0V25.3h42.8l.56,15H169l-.93-4.94a8.06,8.06,0,0,0-7.93-6.58h-6.36a9,9,0,0,0-9,8.87c-.05,4.76-.05,9.65-.05,14.65H150A10,10,0,0,0,160,43.7h2.28V63.94H160a9.68,9.68,0,0,0-9.6-8.4h-5.6c0,5.84,0,11.23.07,16.44A8.14,8.14,0,0,0,153,80h9.24a7.48,7.48,0,0,0,7.34-6.14l1-5.38ZM169.18,7.83C165.66,9.75,154.63,18.42,151,20.26l-2.27-1.76c2.8-2.88,14-12,16.74-14.59Z"/><path class="cls-1" d="M237.48,80.75v2.88H214.36V80.75h0a7.09,7.09,0,0,0,6-9.28l-2.49-7.53H197.32l-2.55,7.73a7,7,0,0,0,5.75,9.08h0v2.88h-19.2V80.75h0a11.69,11.69,0,0,0,9.51-7.85L207,24.74h4.48l16.46,48.35a11.42,11.42,0,0,0,9.54,7.66ZM216.76,60.66,207.56,33l-9.12,27.68Z"/><path class="cls-1" d="M300.92,28.1h0a8.65,8.65,0,0,0-7.45,8.56l-.07,47.61h-2.64L255.16,34.9l.06,37.23a8.5,8.5,0,0,0,7.55,8.42l1.75.2v2.88H244V80.75h0a8.63,8.63,0,0,0,7.53-8.55L251.55,32s0-1.17,0-2.11a.94.94,0,0,0-.72-1l-6.56-.8V25.3h12.48l30,41.94a1.73,1.73,0,0,0,3.13-1l-.05-27.58a10.65,10.65,0,0,0-9.38-10.55h0V25.3h20.48Z"/></svg>