<?xml version="1.0" encoding="utf-8"?>
<!-- Generator: Adobe Illustrator 25.0.0, SVG Export Plug-In . SVG Version: 6.00 Build 0)  -->
<svg version="1.1" id="_x32_" xmlns="http://www.w3.org/2000/svg" xmlns:xlink="http://www.w3.org/1999/xlink" x="0px" y="0px"
	 viewBox="0 0 512 512" style="enable-background:new 0 0 512 512;" xml:space="preserve">
<style type="text/css">
	.st0{fill:#231815;}
	.st1{fill:#FFFFFF;}
</style>
<rect x="-1158.4" y="727.7" class="st0" width="1670.4" height="518"/>
<g>
	<path class="st1" d="M-720.1,0h-364.5c-40.7,0-73.7,33-73.7,73.7v364.5c0,40.7,33,73.7,73.7,73.7h364.5c40.7,0,73.7-33,73.7-73.7
		V73.7C-646.4,33-679.4,0-720.1,0z M-810.6,137.9l-33.3,0c-26.1,0-31.2,12.4-31.2,30.6v40.1h62.2l-8.1,62.9H-875v161.3H-940V271.5
		h-54.3v-62.9h54.3v-46.4c0-53.8,32.9-83.1,80.9-83.1c23,0,42.7,1.7,48.5,2.5L-810.6,137.9L-810.6,137.9z"/>
</g>
<g>
	<path class="st1" d="M-163.8,0h-327.1c-51.1,0-92.4,41.4-92.4,92.4v327.1c0,51.1,41.4,92.4,92.4,92.4h327.1
		c51.1,0,92.4-41.4,92.4-92.4V92.4C-71.3,41.4-112.7,0-163.8,0z M-180.8,326.6L-180.8,326.6c-39.1,45-126.5,99.9-146.4,108.2
		c-19.9,8.4-17-5.3-16.1-10.1c0.5-2.8,2.7-16,2.7-16c0.6-4.8,1.3-12.1-0.6-16.9c-2.1-5.2-10.4-7.9-16.4-9.2
		c-89.6-11.8-155.9-74.5-155.9-149.3c0-83.4,83.6-151.3,186.4-151.3s186.4,67.9,186.4,151.3C-140.8,266.9-153.8,296.9-180.8,326.6z"
		/>
	<path class="st1" d="M-400.2,283.1h-37c-5.4,0-9.8-4.4-9.8-9.8v-74.1c0-5.4,4.4-9.8,9.8-9.8s9.8,4.4,9.8,9.8v64.3h27.3
		c5.4,0,9.8,4.4,9.8,9.8C-390.5,278.7-394.8,283.1-400.2,283.1z"/>
	<path class="st1" d="M-361.9,273.3c0,5.4-4.4,9.8-9.8,9.8c-5.4,0-9.8-4.4-9.8-9.8v-74.1c0-5.4,4.4-9.8,9.8-9.8
		c5.4,0,9.8,4.4,9.8,9.8V273.3z"/>
	<path class="st1" d="M-272.8,273.3c0,4.2-2.7,8-6.7,9.3c-1,0.3-2.1,0.5-3.1,0.5c-3.1,0-6-1.5-7.8-3.9l-38-51.7v45.8
		c0,5.4-4.4,9.8-9.8,9.8c-5.4,0-9.8-4.4-9.8-9.8v-74.1c0-4.2,2.7-7.9,6.7-9.3c1-0.3,2-0.5,3.1-0.5c3,0,6,1.5,7.8,3.9l38,51.7v-45.8
		c0-5.4,4.4-9.8,9.8-9.8c5.4,0,9.8,4.4,9.8,9.8V273.3z"/>
	<path class="st1" d="M-212.8,226.5c5.4,0,9.8,4.4,9.8,9.8c0,5.4-4.4,9.8-9.8,9.8h-27.3v17.5h27.3c5.4,0,9.8,4.4,9.8,9.8
		c0,5.4-4.4,9.8-9.8,9.8h-37c-5.4,0-9.8-4.4-9.8-9.8v-37c0,0,0,0,0,0v0v-37c0,0,0,0,0,0c0-5.4,4.4-9.8,9.8-9.8h37
		c5.4,0,9.8,4.4,9.8,9.8c0,5.4-4.4,9.8-9.8,9.8h-27.3v17.5L-212.8,226.5L-212.8,226.5z"/>
</g>
<g>
	<path class="st1" d="M341,79.8H171c-50.3,0-91.2,40.9-91.2,91.2V341c0,50.3,40.9,91.2,91.2,91.2H341c50.3,0,91.2-40.9,91.2-91.2
		V171C432.2,120.7,391.3,79.8,341,79.8z M256,371.5c-63.7,0-115.5-51.8-115.5-115.5S192.3,140.5,256,140.5
		c63.7,0,115.5,51.8,115.5,115.5S319.7,371.5,256,371.5z M374.6,166.4c-13.4,0-24.3-10.9-24.3-24.3c0-13.4,10.9-24.3,24.3-24.3
		c13.4,0,24.3,10.9,24.3,24.3C398.9,155.5,388,166.4,374.6,166.4z"/>
	<ellipse transform="matrix(0.982 -0.1891 0.1891 0.982 -43.7922 53.0305)" class="st1" cx="256" cy="256" rx="66.9" ry="66.9"/>
	<path class="st1" d="M419.6,0H92.4C41.4,0,0,41.4,0,92.4v327.1C0,470.6,41.4,512,92.4,512h327.1c51.1,0,92.4-41.4,92.4-92.4V92.4
		C512,41.4,470.6,0,419.6,0z M468.6,341c0,34-13.3,66-37.5,90.2c-24.2,24.2-56.2,37.5-90.2,37.5H171c-34,0-66-13.3-90.2-37.5
		C56.7,407,43.4,374.9,43.4,341V171c0-34,13.3-66,37.5-90.2C105,56.7,137.1,43.4,171,43.4H341c34,0,66,13.3,90.2,37.5
		c24.2,24.2,37.5,56.2,37.5,90.2V341z"/>
</g>
</svg>
