<svg id="_2" data-name="2" xmlns="http://www.w3.org/2000/svg" viewBox="0 0 512 512"><defs><style>.cls-1{fill:#fff;}</style></defs><path class="cls-1" d="M339.32,97.43H184.43a83.22,83.22,0,0,0-83.13,83.12v154.9a83.22,83.22,0,0,0,83.13,83.12H339.32a83.22,83.22,0,0,0,83.13-83.12V180.55A83.22,83.22,0,0,0,339.32,97.43ZM261.87,363.29A105.29,105.29,0,1,1,367.16,258,105.41,105.41,0,0,1,261.87,363.29Zm108.07-187a22.17,22.17,0,1,1,22.16-22.17A22.16,22.16,0,0,1,369.94,176.32Z"/><circle class="cls-1" cx="261.87" cy="258" r="60.96"/><path class="cls-1" d="M419.56,0H92.44A92.44,92.44,0,0,0,0,92.44V419.56A92.44,92.44,0,0,0,92.44,512H419.56A92.44,92.44,0,0,0,512,419.56V92.44A92.44,92.44,0,0,0,419.56,0ZM455.7,335.45A116.66,116.66,0,0,1,339.32,451.82H184.43A116.66,116.66,0,0,1,68.05,335.45V180.55A116.66,116.66,0,0,1,184.43,64.18H339.32A116.66,116.66,0,0,1,455.7,180.55Z"/></svg>