<svg id="_2" data-name="2" xmlns="http://www.w3.org/2000/svg" viewBox="0 0 512 512"><defs><style>.cls-1{fill:#fff;}</style></defs><path class="cls-1" d="M438.27,0H73.73A73.73,73.73,0,0,0,0,73.73V438.27A73.73,73.73,0,0,0,73.73,512H438.27A73.73,73.73,0,0,0,512,438.27V73.73A73.73,73.73,0,0,0,438.27,0ZM347.82,137.89l-33.29,0c-26.1,0-31.15,12.4-31.15,30.6v40.13h62.25l-8.11,62.87H283.38v161.3H218.46V271.51H164.18V208.64h54.28V162.28c0-53.8,32.86-83.09,80.85-83.09a443.85,443.85,0,0,1,48.51,2.48v56.22Z"/></svg>